<?xml version="1.0" encoding="UTF-8" standalone="no"?><svg xmlns="http://www.w3.org/2000/svg" xmlns:xlink="http://www.w3.org/1999/xlink" contentStyleType="text/css" height="329px" preserveAspectRatio="none" style="width:296px;height:329px;background:#FFFFFF;" version="1.1" viewBox="0 0 296 329" width="296px" zoomAndPan="magnify"><defs/><g><text fill="#000000" font-family="sans-serif" font-size="12" lengthAdjust="spacing" textLength="42" x="6" y="17.1387">+3,3 V</text><text fill="#000000" font-family="sans-serif" font-size="12" lengthAdjust="spacing" textLength="4" x="123" y="17.1387"> </text><ellipse cx="110" cy="12.9844" fill="none" rx="5" ry="5" style="stroke:#000000;stroke-width:1.5;"/><ellipse cx="110" cy="12.9844" fill="#000000" rx="2" ry="2" style="stroke:#000000;stroke-width:1.5;"/><text fill="#000000" font-family="sans-serif" font-size="12" lengthAdjust="spacing" textLength="15" x="129" y="17.1387">01</text><line style="stroke:#AAAAAA;stroke-width:1.0;" x1="147" x2="158" y1="13.4844" y2="13.4844"/><text fill="#000000" font-family="sans-serif" font-size="12" lengthAdjust="spacing" textLength="16" x="159" y="17.1387">02</text><text fill="#000000" font-family="sans-serif" font-size="12" lengthAdjust="spacing" textLength="4" x="197" y="17.1387"> </text><ellipse cx="184" cy="12.9844" fill="none" rx="5" ry="5" style="stroke:#000000;stroke-width:1.5;"/><ellipse cx="184" cy="12.9844" fill="#000000" rx="2" ry="2" style="stroke:#000000;stroke-width:1.5;"/><text fill="#000000" font-family="sans-serif" font-size="12" lengthAdjust="spacing" textLength="30" x="203" y="17.1387">+5 V</text><text fill="#000000" font-family="sans-serif" font-size="12" lengthAdjust="spacing" textLength="79" x="6" y="33.1074">(SDA) GPIO 2</text><text fill="#000000" font-family="sans-serif" font-size="12" lengthAdjust="spacing" textLength="4" x="123" y="33.1074"> </text><ellipse cx="110" cy="28.9531" fill="none" rx="5" ry="5" style="stroke:#000000;stroke-width:1.5;"/><ellipse cx="110" cy="28.9531" fill="#000000" rx="2" ry="2" style="stroke:#000000;stroke-width:1.5;"/><text fill="#000000" font-family="sans-serif" font-size="12" lengthAdjust="spacing" textLength="16" x="129" y="33.1074">03</text><line style="stroke:#AAAAAA;stroke-width:1.0;" x1="147" x2="158" y1="29.4531" y2="29.4531"/><text fill="#000000" font-family="sans-serif" font-size="12" lengthAdjust="spacing" textLength="16" x="159" y="33.1074">04</text><text fill="#000000" font-family="sans-serif" font-size="12" lengthAdjust="spacing" textLength="4" x="197" y="33.1074"> </text><ellipse cx="184" cy="28.9531" fill="none" rx="5" ry="5" style="stroke:#000000;stroke-width:1.5;"/><ellipse cx="184" cy="28.9531" fill="#000000" rx="2" ry="2" style="stroke:#000000;stroke-width:1.5;"/><text fill="#000000" font-family="sans-serif" font-size="12" lengthAdjust="spacing" textLength="30" x="203" y="33.1074">+5 V</text><text fill="#000000" font-family="sans-serif" font-size="12" lengthAdjust="spacing" textLength="76" x="6" y="49.0762">(SCL) GPIO 3</text><text fill="#000000" font-family="sans-serif" font-size="12" lengthAdjust="spacing" textLength="4" x="123" y="49.0762"> </text><ellipse cx="110" cy="44.9219" fill="none" rx="5" ry="5" style="stroke:#000000;stroke-width:1.5;"/><ellipse cx="110" cy="44.9219" fill="#000000" rx="2" ry="2" style="stroke:#000000;stroke-width:1.5;"/><text fill="#000000" font-family="sans-serif" font-size="12" lengthAdjust="spacing" textLength="16" x="129" y="49.0762">05</text><line style="stroke:#AAAAAA;stroke-width:1.0;" x1="147" x2="158" y1="45.4219" y2="45.4219"/><text fill="#000000" font-family="sans-serif" font-size="12" lengthAdjust="spacing" textLength="16" x="159" y="49.0762">06</text><text fill="#000000" font-family="sans-serif" font-size="12" lengthAdjust="spacing" textLength="4" x="197" y="49.0762"> </text><ellipse cx="184" cy="44.9219" fill="none" rx="5" ry="5" style="stroke:#000000;stroke-width:1.5;"/><ellipse cx="184" cy="44.9219" fill="#000000" rx="2" ry="2" style="stroke:#000000;stroke-width:1.5;"/><text fill="#000000" font-family="sans-serif" font-size="12" lengthAdjust="spacing" textLength="26" x="203" y="49.0762">GND</text><text fill="#000000" font-family="sans-serif" font-size="12" lengthAdjust="spacing" textLength="95" x="6" y="65.0449">(GPCLK0) GPIO4</text><text fill="#000000" font-family="sans-serif" font-size="12" lengthAdjust="spacing" textLength="4" x="123" y="65.0449"> </text><ellipse cx="110" cy="60.8906" fill="none" rx="5" ry="5" style="stroke:#000000;stroke-width:1.5;"/><ellipse cx="110" cy="60.8906" fill="#000000" rx="2" ry="2" style="stroke:#000000;stroke-width:1.5;"/><text fill="#000000" font-family="sans-serif" font-size="12" lengthAdjust="spacing" textLength="16" x="129" y="65.0449">07</text><line style="stroke:#AAAAAA;stroke-width:1.0;" x1="147" x2="158" y1="61.3906" y2="61.3906"/><text fill="#000000" font-family="sans-serif" font-size="12" lengthAdjust="spacing" textLength="16" x="159" y="65.0449">08</text><text fill="#000000" font-family="sans-serif" font-size="12" lengthAdjust="spacing" textLength="4" x="197" y="65.0449"> </text><ellipse cx="184" cy="60.8906" fill="none" rx="5" ry="5" style="stroke:#000000;stroke-width:1.5;"/><ellipse cx="184" cy="60.8906" fill="#000000" rx="2" ry="2" style="stroke:#000000;stroke-width:1.5;"/><text fill="#000000" font-family="sans-serif" font-size="12" lengthAdjust="spacing" textLength="85" x="203" y="65.0449">GPIO 14 (TXD)</text><line style="stroke:#AAAAAA;stroke-width:1.0;stroke-dasharray:1.0,2.0;" x1="6" x2="102" y1="77.3594" y2="77.3594"/><text fill="#000000" font-family="sans-serif" font-size="12" lengthAdjust="spacing" textLength="4" x="123" y="81.0137"> </text><ellipse cx="110" cy="76.8594" fill="none" rx="5" ry="5" style="stroke:#000000;stroke-width:1.5;"/><ellipse cx="110" cy="76.8594" fill="#000000" rx="2" ry="2" style="stroke:#000000;stroke-width:1.5;"/><text fill="#000000" font-family="sans-serif" font-size="12" lengthAdjust="spacing" textLength="16" x="129" y="81.0137">09</text><line style="stroke:#AAAAAA;stroke-width:1.0;" x1="147" x2="158" y1="77.3594" y2="77.3594"/><text fill="#000000" font-family="sans-serif" font-size="12" lengthAdjust="spacing" textLength="15" x="159" y="81.0137">10</text><text fill="#000000" font-family="sans-serif" font-size="12" lengthAdjust="spacing" textLength="4" x="197" y="81.0137"> </text><ellipse cx="184" cy="76.8594" fill="none" rx="5" ry="5" style="stroke:#000000;stroke-width:1.5;"/><ellipse cx="184" cy="76.8594" fill="#000000" rx="2" ry="2" style="stroke:#000000;stroke-width:1.5;"/><line style="stroke:#AAAAAA;stroke-width:1.0;stroke-dasharray:1.0,2.0;" x1="203" x2="289" y1="77.3594" y2="77.3594"/><line style="stroke:#AAAAAA;stroke-width:1.0;stroke-dasharray:1.0,2.0;" x1="6" x2="102" y1="93.3281" y2="93.3281"/><text fill="#000000" font-family="sans-serif" font-size="12" lengthAdjust="spacing" textLength="4" x="123" y="96.9824"> </text><ellipse cx="110" cy="92.8281" fill="none" rx="5" ry="5" style="stroke:#000000;stroke-width:1.5;"/><ellipse cx="110" cy="92.8281" fill="#000000" rx="2" ry="2" style="stroke:#000000;stroke-width:1.5;"/><text fill="#000000" font-family="sans-serif" font-size="12" lengthAdjust="spacing" textLength="14" x="129" y="96.9824">11</text><line style="stroke:#AAAAAA;stroke-width:1.0;" x1="147" x2="158" y1="93.3281" y2="93.3281"/><text fill="#000000" font-family="sans-serif" font-size="12" lengthAdjust="spacing" textLength="15" x="159" y="96.9824">12</text><text fill="#000000" font-family="sans-serif" font-size="12" lengthAdjust="spacing" textLength="4" x="197" y="96.9824"> </text><ellipse cx="184" cy="92.8281" fill="none" rx="5" ry="5" style="stroke:#000000;stroke-width:1.5;"/><ellipse cx="184" cy="92.8281" fill="#000000" rx="2" ry="2" style="stroke:#000000;stroke-width:1.5;"/><line style="stroke:#AAAAAA;stroke-width:1.0;stroke-dasharray:1.0,2.0;" x1="203" x2="289" y1="93.3281" y2="93.3281"/><line style="stroke:#AAAAAA;stroke-width:1.0;stroke-dasharray:1.0,2.0;" x1="6" x2="102" y1="109.2969" y2="109.2969"/><text fill="#000000" font-family="sans-serif" font-size="12" lengthAdjust="spacing" textLength="4" x="123" y="112.9512"> </text><ellipse cx="110" cy="108.7969" fill="none" rx="5" ry="5" style="stroke:#000000;stroke-width:1.5;"/><ellipse cx="110" cy="108.7969" fill="#000000" rx="2" ry="2" style="stroke:#000000;stroke-width:1.5;"/><text fill="#000000" font-family="sans-serif" font-size="12" lengthAdjust="spacing" textLength="15" x="129" y="112.9512">13</text><line style="stroke:#AAAAAA;stroke-width:1.0;" x1="147" x2="158" y1="109.2969" y2="109.2969"/><text fill="#000000" font-family="sans-serif" font-size="12" lengthAdjust="spacing" textLength="15" x="159" y="112.9512">14</text><text fill="#000000" font-family="sans-serif" font-size="12" lengthAdjust="spacing" textLength="4" x="197" y="112.9512"> </text><ellipse cx="184" cy="108.7969" fill="none" rx="5" ry="5" style="stroke:#000000;stroke-width:1.5;"/><ellipse cx="184" cy="108.7969" fill="#000000" rx="2" ry="2" style="stroke:#000000;stroke-width:1.5;"/><line style="stroke:#AAAAAA;stroke-width:1.0;stroke-dasharray:1.0,2.0;" x1="203" x2="289" y1="109.2969" y2="109.2969"/><line style="stroke:#AAAAAA;stroke-width:1.0;stroke-dasharray:1.0,2.0;" x1="6" x2="102" y1="125.2656" y2="125.2656"/><text fill="#000000" font-family="sans-serif" font-size="12" lengthAdjust="spacing" textLength="4" x="123" y="128.9199"> </text><ellipse cx="110" cy="124.7656" fill="none" rx="5" ry="5" style="stroke:#000000;stroke-width:1.5;"/><ellipse cx="110" cy="124.7656" fill="#000000" rx="2" ry="2" style="stroke:#000000;stroke-width:1.5;"/><text fill="#000000" font-family="sans-serif" font-size="12" lengthAdjust="spacing" textLength="15" x="129" y="128.9199">15</text><line style="stroke:#AAAAAA;stroke-width:1.0;" x1="147" x2="158" y1="125.2656" y2="125.2656"/><text fill="#000000" font-family="sans-serif" font-size="12" lengthAdjust="spacing" textLength="15" x="159" y="128.9199">16</text><text fill="#000000" font-family="sans-serif" font-size="12" lengthAdjust="spacing" textLength="4" x="197" y="128.9199"> </text><ellipse cx="184" cy="124.7656" fill="none" rx="5" ry="5" style="stroke:#000000;stroke-width:1.5;"/><ellipse cx="184" cy="124.7656" fill="#000000" rx="2" ry="2" style="stroke:#000000;stroke-width:1.5;"/><line style="stroke:#AAAAAA;stroke-width:1.0;stroke-dasharray:1.0,2.0;" x1="203" x2="289" y1="125.2656" y2="125.2656"/><line style="stroke:#AAAAAA;stroke-width:1.0;stroke-dasharray:1.0,2.0;" x1="6" x2="102" y1="141.2344" y2="141.2344"/><text fill="#000000" font-family="sans-serif" font-size="12" lengthAdjust="spacing" textLength="4" x="123" y="144.8887"> </text><ellipse cx="110" cy="140.7344" fill="none" rx="5" ry="5" style="stroke:#000000;stroke-width:1.5;"/><ellipse cx="110" cy="140.7344" fill="#000000" rx="2" ry="2" style="stroke:#000000;stroke-width:1.5;"/><text fill="#000000" font-family="sans-serif" font-size="12" lengthAdjust="spacing" textLength="15" x="129" y="144.8887">17</text><line style="stroke:#AAAAAA;stroke-width:1.0;" x1="147" x2="158" y1="141.2344" y2="141.2344"/><text fill="#000000" font-family="sans-serif" font-size="12" lengthAdjust="spacing" textLength="15" x="159" y="144.8887">18</text><text fill="#000000" font-family="sans-serif" font-size="12" lengthAdjust="spacing" textLength="4" x="197" y="144.8887"> </text><ellipse cx="184" cy="140.7344" fill="none" rx="5" ry="5" style="stroke:#000000;stroke-width:1.5;"/><ellipse cx="184" cy="140.7344" fill="#000000" rx="2" ry="2" style="stroke:#000000;stroke-width:1.5;"/><line style="stroke:#AAAAAA;stroke-width:1.0;stroke-dasharray:1.0,2.0;" x1="203" x2="289" y1="141.2344" y2="141.2344"/><line style="stroke:#AAAAAA;stroke-width:1.0;stroke-dasharray:1.0,2.0;" x1="6" x2="102" y1="157.2031" y2="157.2031"/><text fill="#000000" font-family="sans-serif" font-size="12" lengthAdjust="spacing" textLength="4" x="123" y="160.8574"> </text><ellipse cx="110" cy="156.7031" fill="none" rx="5" ry="5" style="stroke:#000000;stroke-width:1.5;"/><ellipse cx="110" cy="156.7031" fill="#000000" rx="2" ry="2" style="stroke:#000000;stroke-width:1.5;"/><text fill="#000000" font-family="sans-serif" font-size="12" lengthAdjust="spacing" textLength="15" x="129" y="160.8574">19</text><line style="stroke:#AAAAAA;stroke-width:1.0;" x1="147" x2="158" y1="157.2031" y2="157.2031"/><text fill="#000000" font-family="sans-serif" font-size="12" lengthAdjust="spacing" textLength="16" x="159" y="160.8574">20</text><text fill="#000000" font-family="sans-serif" font-size="12" lengthAdjust="spacing" textLength="4" x="197" y="160.8574"> </text><ellipse cx="184" cy="156.7031" fill="none" rx="5" ry="5" style="stroke:#000000;stroke-width:1.5;"/><ellipse cx="184" cy="156.7031" fill="#000000" rx="2" ry="2" style="stroke:#000000;stroke-width:1.5;"/><line style="stroke:#AAAAAA;stroke-width:1.0;stroke-dasharray:1.0,2.0;" x1="203" x2="289" y1="157.2031" y2="157.2031"/><line style="stroke:#AAAAAA;stroke-width:1.0;stroke-dasharray:1.0,2.0;" x1="6" x2="102" y1="173.1719" y2="173.1719"/><text fill="#000000" font-family="sans-serif" font-size="12" lengthAdjust="spacing" textLength="4" x="123" y="176.8262"> </text><ellipse cx="110" cy="172.6719" fill="none" rx="5" ry="5" style="stroke:#000000;stroke-width:1.5;"/><ellipse cx="110" cy="172.6719" fill="#000000" rx="2" ry="2" style="stroke:#000000;stroke-width:1.5;"/><text fill="#000000" font-family="sans-serif" font-size="12" lengthAdjust="spacing" textLength="15" x="129" y="176.8262">21</text><line style="stroke:#AAAAAA;stroke-width:1.0;" x1="147" x2="158" y1="173.1719" y2="173.1719"/><text fill="#000000" font-family="sans-serif" font-size="12" lengthAdjust="spacing" textLength="16" x="159" y="176.8262">22</text><text fill="#000000" font-family="sans-serif" font-size="12" lengthAdjust="spacing" textLength="4" x="197" y="176.8262"> </text><ellipse cx="184" cy="172.6719" fill="none" rx="5" ry="5" style="stroke:#000000;stroke-width:1.5;"/><ellipse cx="184" cy="172.6719" fill="#000000" rx="2" ry="2" style="stroke:#000000;stroke-width:1.5;"/><line style="stroke:#AAAAAA;stroke-width:1.0;stroke-dasharray:1.0,2.0;" x1="203" x2="289" y1="173.1719" y2="173.1719"/><line style="stroke:#AAAAAA;stroke-width:1.0;stroke-dasharray:1.0,2.0;" x1="6" x2="102" y1="189.1406" y2="189.1406"/><text fill="#000000" font-family="sans-serif" font-size="12" lengthAdjust="spacing" textLength="4" x="123" y="192.7949"> </text><ellipse cx="110" cy="188.6406" fill="none" rx="5" ry="5" style="stroke:#000000;stroke-width:1.5;"/><ellipse cx="110" cy="188.6406" fill="#000000" rx="2" ry="2" style="stroke:#000000;stroke-width:1.5;"/><text fill="#000000" font-family="sans-serif" font-size="12" lengthAdjust="spacing" textLength="16" x="129" y="192.7949">23</text><line style="stroke:#AAAAAA;stroke-width:1.0;" x1="147" x2="158" y1="189.1406" y2="189.1406"/><text fill="#000000" font-family="sans-serif" font-size="12" lengthAdjust="spacing" textLength="16" x="159" y="192.7949">24</text><text fill="#000000" font-family="sans-serif" font-size="12" lengthAdjust="spacing" textLength="4" x="197" y="192.7949"> </text><ellipse cx="184" cy="188.6406" fill="none" rx="5" ry="5" style="stroke:#000000;stroke-width:1.5;"/><ellipse cx="184" cy="188.6406" fill="#000000" rx="2" ry="2" style="stroke:#000000;stroke-width:1.5;"/><line style="stroke:#AAAAAA;stroke-width:1.0;stroke-dasharray:1.0,2.0;" x1="203" x2="289" y1="189.1406" y2="189.1406"/><line style="stroke:#AAAAAA;stroke-width:1.0;stroke-dasharray:1.0,2.0;" x1="6" x2="102" y1="205.1094" y2="205.1094"/><text fill="#000000" font-family="sans-serif" font-size="12" lengthAdjust="spacing" textLength="4" x="123" y="208.7637"> </text><ellipse cx="110" cy="204.6094" fill="none" rx="5" ry="5" style="stroke:#000000;stroke-width:1.5;"/><ellipse cx="110" cy="204.6094" fill="#000000" rx="2" ry="2" style="stroke:#000000;stroke-width:1.5;"/><text fill="#000000" font-family="sans-serif" font-size="12" lengthAdjust="spacing" textLength="16" x="129" y="208.7637">25</text><line style="stroke:#AAAAAA;stroke-width:1.0;" x1="147" x2="158" y1="205.1094" y2="205.1094"/><text fill="#000000" font-family="sans-serif" font-size="12" lengthAdjust="spacing" textLength="16" x="159" y="208.7637">26</text><text fill="#000000" font-family="sans-serif" font-size="12" lengthAdjust="spacing" textLength="4" x="197" y="208.7637"> </text><ellipse cx="184" cy="204.6094" fill="none" rx="5" ry="5" style="stroke:#000000;stroke-width:1.5;"/><ellipse cx="184" cy="204.6094" fill="#000000" rx="2" ry="2" style="stroke:#000000;stroke-width:1.5;"/><line style="stroke:#AAAAAA;stroke-width:1.0;stroke-dasharray:1.0,2.0;" x1="203" x2="289" y1="205.1094" y2="205.1094"/><line style="stroke:#AAAAAA;stroke-width:1.0;stroke-dasharray:1.0,2.0;" x1="6" x2="102" y1="221.0781" y2="221.0781"/><text fill="#000000" font-family="sans-serif" font-size="12" lengthAdjust="spacing" textLength="4" x="123" y="224.7324"> </text><ellipse cx="110" cy="220.5781" fill="none" rx="5" ry="5" style="stroke:#000000;stroke-width:1.5;"/><ellipse cx="110" cy="220.5781" fill="#000000" rx="2" ry="2" style="stroke:#000000;stroke-width:1.5;"/><text fill="#000000" font-family="sans-serif" font-size="12" lengthAdjust="spacing" textLength="16" x="129" y="224.7324">27</text><line style="stroke:#AAAAAA;stroke-width:1.0;" x1="147" x2="158" y1="221.0781" y2="221.0781"/><text fill="#000000" font-family="sans-serif" font-size="12" lengthAdjust="spacing" textLength="16" x="159" y="224.7324">28</text><text fill="#000000" font-family="sans-serif" font-size="12" lengthAdjust="spacing" textLength="4" x="197" y="224.7324"> </text><ellipse cx="184" cy="220.5781" fill="none" rx="5" ry="5" style="stroke:#000000;stroke-width:1.5;"/><ellipse cx="184" cy="220.5781" fill="#000000" rx="2" ry="2" style="stroke:#000000;stroke-width:1.5;"/><line style="stroke:#AAAAAA;stroke-width:1.0;stroke-dasharray:1.0,2.0;" x1="203" x2="289" y1="221.0781" y2="221.0781"/><line style="stroke:#AAAAAA;stroke-width:1.0;stroke-dasharray:1.0,2.0;" x1="6" x2="102" y1="237.0469" y2="237.0469"/><text fill="#000000" font-family="sans-serif" font-size="12" lengthAdjust="spacing" textLength="4" x="123" y="240.7012"> </text><ellipse cx="110" cy="236.5469" fill="none" rx="5" ry="5" style="stroke:#000000;stroke-width:1.5;"/><ellipse cx="110" cy="236.5469" fill="#000000" rx="2" ry="2" style="stroke:#000000;stroke-width:1.5;"/><text fill="#000000" font-family="sans-serif" font-size="12" lengthAdjust="spacing" textLength="16" x="129" y="240.7012">29</text><line style="stroke:#AAAAAA;stroke-width:1.0;" x1="147" x2="158" y1="237.0469" y2="237.0469"/><text fill="#000000" font-family="sans-serif" font-size="12" lengthAdjust="spacing" textLength="16" x="159" y="240.7012">30</text><text fill="#000000" font-family="sans-serif" font-size="12" lengthAdjust="spacing" textLength="4" x="197" y="240.7012"> </text><ellipse cx="184" cy="236.5469" fill="none" rx="5" ry="5" style="stroke:#000000;stroke-width:1.5;"/><ellipse cx="184" cy="236.5469" fill="#000000" rx="2" ry="2" style="stroke:#000000;stroke-width:1.5;"/><line style="stroke:#AAAAAA;stroke-width:1.0;stroke-dasharray:1.0,2.0;" x1="203" x2="289" y1="237.0469" y2="237.0469"/><line style="stroke:#AAAAAA;stroke-width:1.0;stroke-dasharray:1.0,2.0;" x1="6" x2="102" y1="253.0156" y2="253.0156"/><text fill="#000000" font-family="sans-serif" font-size="12" lengthAdjust="spacing" textLength="4" x="123" y="256.6699"> </text><ellipse cx="110" cy="252.5156" fill="none" rx="5" ry="5" style="stroke:#000000;stroke-width:1.5;"/><ellipse cx="110" cy="252.5156" fill="#000000" rx="2" ry="2" style="stroke:#000000;stroke-width:1.5;"/><text fill="#000000" font-family="sans-serif" font-size="12" lengthAdjust="spacing" textLength="15" x="129" y="256.6699">31</text><line style="stroke:#AAAAAA;stroke-width:1.0;" x1="147" x2="158" y1="253.0156" y2="253.0156"/><text fill="#000000" font-family="sans-serif" font-size="12" lengthAdjust="spacing" textLength="16" x="159" y="256.6699">32</text><text fill="#000000" font-family="sans-serif" font-size="12" lengthAdjust="spacing" textLength="4" x="197" y="256.6699"> </text><ellipse cx="184" cy="252.5156" fill="none" rx="5" ry="5" style="stroke:#000000;stroke-width:1.5;"/><ellipse cx="184" cy="252.5156" fill="#000000" rx="2" ry="2" style="stroke:#000000;stroke-width:1.5;"/><line style="stroke:#AAAAAA;stroke-width:1.0;stroke-dasharray:1.0,2.0;" x1="203" x2="289" y1="253.0156" y2="253.0156"/><line style="stroke:#AAAAAA;stroke-width:1.0;stroke-dasharray:1.0,2.0;" x1="6" x2="102" y1="268.9844" y2="268.9844"/><text fill="#000000" font-family="sans-serif" font-size="12" lengthAdjust="spacing" textLength="4" x="123" y="272.6387"> </text><ellipse cx="110" cy="268.4844" fill="none" rx="5" ry="5" style="stroke:#000000;stroke-width:1.5;"/><ellipse cx="110" cy="268.4844" fill="#000000" rx="2" ry="2" style="stroke:#000000;stroke-width:1.5;"/><text fill="#000000" font-family="sans-serif" font-size="12" lengthAdjust="spacing" textLength="16" x="129" y="272.6387">33</text><line style="stroke:#AAAAAA;stroke-width:1.0;" x1="147" x2="158" y1="268.9844" y2="268.9844"/><text fill="#000000" font-family="sans-serif" font-size="12" lengthAdjust="spacing" textLength="16" x="159" y="272.6387">34</text><text fill="#000000" font-family="sans-serif" font-size="12" lengthAdjust="spacing" textLength="4" x="197" y="272.6387"> </text><ellipse cx="184" cy="268.4844" fill="none" rx="5" ry="5" style="stroke:#000000;stroke-width:1.5;"/><ellipse cx="184" cy="268.4844" fill="#000000" rx="2" ry="2" style="stroke:#000000;stroke-width:1.5;"/><line style="stroke:#AAAAAA;stroke-width:1.0;stroke-dasharray:1.0,2.0;" x1="203" x2="289" y1="268.9844" y2="268.9844"/><line style="stroke:#AAAAAA;stroke-width:1.0;stroke-dasharray:1.0,2.0;" x1="6" x2="102" y1="284.9531" y2="284.9531"/><text fill="#000000" font-family="sans-serif" font-size="12" lengthAdjust="spacing" textLength="4" x="123" y="288.6074"> </text><ellipse cx="110" cy="284.4531" fill="none" rx="5" ry="5" style="stroke:#000000;stroke-width:1.5;"/><ellipse cx="110" cy="284.4531" fill="#000000" rx="2" ry="2" style="stroke:#000000;stroke-width:1.5;"/><text fill="#000000" font-family="sans-serif" font-size="12" lengthAdjust="spacing" textLength="16" x="129" y="288.6074">35</text><line style="stroke:#AAAAAA;stroke-width:1.0;" x1="147" x2="158" y1="284.9531" y2="284.9531"/><text fill="#000000" font-family="sans-serif" font-size="12" lengthAdjust="spacing" textLength="16" x="159" y="288.6074">36</text><text fill="#000000" font-family="sans-serif" font-size="12" lengthAdjust="spacing" textLength="4" x="197" y="288.6074"> </text><ellipse cx="184" cy="284.4531" fill="none" rx="5" ry="5" style="stroke:#000000;stroke-width:1.5;"/><ellipse cx="184" cy="284.4531" fill="#000000" rx="2" ry="2" style="stroke:#000000;stroke-width:1.5;"/><line style="stroke:#AAAAAA;stroke-width:1.0;stroke-dasharray:1.0,2.0;" x1="203" x2="289" y1="284.9531" y2="284.9531"/><line style="stroke:#AAAAAA;stroke-width:1.0;stroke-dasharray:1.0,2.0;" x1="6" x2="102" y1="300.9219" y2="300.9219"/><text fill="#000000" font-family="sans-serif" font-size="12" lengthAdjust="spacing" textLength="4" x="123" y="304.5762"> </text><ellipse cx="110" cy="300.4219" fill="none" rx="5" ry="5" style="stroke:#000000;stroke-width:1.5;"/><ellipse cx="110" cy="300.4219" fill="#000000" rx="2" ry="2" style="stroke:#000000;stroke-width:1.5;"/><text fill="#000000" font-family="sans-serif" font-size="12" lengthAdjust="spacing" textLength="16" x="129" y="304.5762">37</text><line style="stroke:#AAAAAA;stroke-width:1.0;" x1="147" x2="158" y1="300.9219" y2="300.9219"/><text fill="#000000" font-family="sans-serif" font-size="12" lengthAdjust="spacing" textLength="16" x="159" y="304.5762">38</text><text fill="#000000" font-family="sans-serif" font-size="12" lengthAdjust="spacing" textLength="4" x="197" y="304.5762"> </text><ellipse cx="184" cy="300.4219" fill="none" rx="5" ry="5" style="stroke:#000000;stroke-width:1.5;"/><ellipse cx="184" cy="300.4219" fill="#000000" rx="2" ry="2" style="stroke:#000000;stroke-width:1.5;"/><line style="stroke:#AAAAAA;stroke-width:1.0;stroke-dasharray:1.0,2.0;" x1="203" x2="289" y1="300.9219" y2="300.9219"/><line style="stroke:#AAAAAA;stroke-width:1.0;stroke-dasharray:1.0,2.0;" x1="6" x2="102" y1="316.8906" y2="316.8906"/><text fill="#000000" font-family="sans-serif" font-size="12" lengthAdjust="spacing" textLength="4" x="123" y="320.5449"> </text><ellipse cx="110" cy="316.3906" fill="none" rx="5" ry="5" style="stroke:#000000;stroke-width:1.5;"/><ellipse cx="110" cy="316.3906" fill="#000000" rx="2" ry="2" style="stroke:#000000;stroke-width:1.5;"/><text fill="#000000" font-family="sans-serif" font-size="12" lengthAdjust="spacing" textLength="16" x="129" y="320.5449">39</text><line style="stroke:#AAAAAA;stroke-width:1.0;" x1="147" x2="158" y1="316.8906" y2="316.8906"/><text fill="#000000" font-family="sans-serif" font-size="12" lengthAdjust="spacing" textLength="16" x="159" y="320.5449">40</text><text fill="#000000" font-family="sans-serif" font-size="12" lengthAdjust="spacing" textLength="4" x="197" y="320.5449"> </text><ellipse cx="184" cy="316.3906" fill="none" rx="5" ry="5" style="stroke:#000000;stroke-width:1.5;"/><ellipse cx="184" cy="316.3906" fill="#000000" rx="2" ry="2" style="stroke:#000000;stroke-width:1.5;"/><line style="stroke:#AAAAAA;stroke-width:1.0;stroke-dasharray:1.0,2.0;" x1="203" x2="289" y1="316.8906" y2="316.8906"/><!--MD5=[56ab263521f4e566d4cf0cb18b8e9e6f]
@startuml
salt
{
+3,3 V|(X)|01|- - -|02|(X)|+5 V
(SDA) GPIO 2|(X)|03|- - -|04|(X)|+5 V
(SCL) GPIO 3|(X)|05|- - -|06|(X)|GND
(GPCLK0) GPIO4|(X)|07|- - -|08|(X)|GPIO 14 (TXD)
...|(X)|09|- - -|10|(X)|...
...|(X)|11|- - -|12|(X)|...
...|(X)|13|- - -|14|(X)|...
...|(X)|15|- - -|16|(X)|...
...|(X)|17|- - -|18|(X)|...
...|(X)|19|- - -|20|(X)|...
...|(X)|21|- - -|22|(X)|...
...|(X)|23|- - -|24|(X)|...
...|(X)|25|- - -|26|(X)|...
...|(X)|27|- - -|28|(X)|...
...|(X)|29|- - -|30|(X)|...
...|(X)|31|- - -|32|(X)|...
...|(X)|33|- - -|34|(X)|...
...|(X)|35|- - -|36|(X)|...
...|(X)|37|- - -|38|(X)|...
...|(X)|39|- - -|40|(X)|...
}
@enduml

PlantUML version 1.2022.13beta2(Unknown compile time)
(GPL source distribution)
Java Runtime: Java(TM) SE Runtime Environment
JVM: Java HotSpot(TM) 64-Bit Server VM
Default Encoding: UTF-8
Language: en
Country: US
--></g></svg>